<svg width="140" height="43" viewBox="0 0 140 43" fill="none" xmlns="http://www.w3.org/2000/svg">
<path d="M134.439 0.961815C134.344 1.53593 134.152 3.67293 133.961 5.68234C133.674 9.15894 132.526 14.0708 131.218 17.3242C130.739 18.5043 130.038 21.0878 129.081 24.9153L128.698 26.4463L126.051 26.5739C124.584 26.6695 123.244 26.829 123.084 26.9247C122.925 27.0204 120.947 27.2437 118.715 27.4031C116.482 27.5626 113.899 27.8497 112.974 28.041C112.017 28.2324 111.187 28.3281 111.124 28.2324C111.06 28.1686 111.538 27.754 112.176 27.3074C112.846 26.8609 114.281 25.5851 115.398 24.4688C117.694 22.1404 118.173 20.9284 118.077 17.675C117.981 15.0277 117.12 13.3372 114.887 11.5511C114.058 10.8813 113.324 10.2434 113.229 10.1158C112.878 9.66927 110.358 8.58482 108.54 8.10639C105.797 7.3728 103.118 7.43659 101.81 8.23397C99.2905 9.76496 99.8008 13.3053 102.608 13.8476C103.214 13.9752 104.489 13.8795 105.414 13.6562C107.073 13.2735 107.137 13.2735 108.859 14.2622C111.124 15.5699 111.347 15.857 111.825 18.3767C112.208 20.418 112.208 20.6094 111.475 22.2042C111.06 23.0972 110.039 24.5006 109.242 25.298C107.807 26.7333 104.904 28.3281 103.756 28.3281C103.405 28.3281 102.863 28.5514 102.512 28.8065C102.193 29.0617 101.651 29.285 101.332 29.285C100.247 29.285 98.5569 31.4857 98.5569 32.8254C98.5569 35.058 101.045 36.2063 103.469 35.0899C104.234 34.7072 105.287 34.3244 105.765 34.2288C107.583 33.8141 110.231 32.8254 111.634 32.028C112.431 31.6133 113.93 31.103 114.983 30.9116C123.786 29.4125 125.253 29.1255 126.402 28.6789C128.092 28.041 128.252 28.1367 127.741 29.8272C126.657 33.559 125.54 43 126.21 43C126.657 43 127.741 41.4371 128.188 40.1294C128.539 39.1088 130.963 34.7391 131.377 34.3882C132.366 33.559 136.034 23.3843 136.991 18.9189C137.278 17.5155 137.884 15.2829 138.33 13.9752C139.383 10.8813 139.351 8.13829 138.203 4.43842C137.629 2.4609 137.15 1.50404 136.417 0.834233C135.109 -0.314003 134.663 -0.282107 134.439 0.961815Z" fill="white"/>
<path d="M37.6366 21.949V34.3882H41.6235H45.6105V21.949V9.50975H41.6235H37.6366V21.949Z" fill="white"/>
<path d="M74.3163 12.5398V15.5699H70.8078H67.2993V19.5568V23.5437H70.8078H74.3163V28.966V34.3882H78.1438H81.9712V21.949V9.50975H78.1438H74.3163V12.5398Z" fill="white"/>
<path d="M85.5435 21.8534L85.6392 34.2288L89.4029 34.3245L93.1346 34.4202V21.9491V9.50983H89.3072H85.4797L85.5435 21.8534Z" fill="white"/>
<path d="M10.5255 12.7631C10.079 13.5286 9.34536 14.7725 8.89883 15.5699C8.4204 16.3673 6.25151 20.0033 4.01882 23.6394C1.81804 27.3074 0 30.4013 0 30.4969C0 30.6245 1.08444 31.3581 2.42405 32.1555C5.90066 34.2287 6.15582 34.3563 6.41098 34.2287C6.50667 34.133 7.87817 32.0598 9.44105 29.572L12.2478 25.0747L12.9814 25.9997C13.3961 26.4781 14.1297 27.4669 14.5762 28.1686C16.5856 31.0711 17.9571 32.7615 18.2123 32.6339C18.3399 32.5382 19.5519 30.8797 20.8915 28.966C22.2311 27.0522 23.4113 25.4256 23.5388 25.3299C23.7621 25.2023 25.9629 28.4875 28.5464 32.7934C29.0886 33.6546 29.599 34.3882 29.6947 34.3882C29.8222 34.3882 31.2256 33.527 32.7885 32.4745L35.691 30.5607L31.8954 24.2454C26.1224 14.613 24.2405 11.5829 23.9854 11.5192C23.794 11.4554 22.9966 12.6674 19.2967 18.5999C18.595 19.7163 17.9571 20.6413 17.8614 20.6413C17.7658 20.6413 16.3624 18.568 14.7038 16.0483C13.0771 13.4967 11.6418 11.4235 11.5143 11.4235C11.4186 11.4235 10.972 12.0295 10.5255 12.7631Z" fill="white"/>
<path d="M50.7137 23.2247C50.7137 29.1892 50.8094 34.0692 50.9689 34.0692C51.0965 34.0692 55.3067 34.1011 60.3781 34.1648L69.5321 34.2286V30.5607V26.8927H64.5245H59.485L59.3893 19.6205L59.3255 12.3803H55.0196H50.7137V23.2247Z" fill="white"/>
</svg>
